<svg width="134" height="134" viewBox="0 0 134 134" fill="none" xmlns="http://www.w3.org/2000/svg">
<g clip-path="url(#clip0_21_20)">
<rect width="134" height="134" rx="67" fill="white"/>
<path d="M68.1988 87.4722C80.2107 87.4722 89.9483 77.7346 89.9483 65.7227C89.9483 53.7107 80.2107 43.9731 68.1988 43.9731C56.1868 43.9731 46.4492 53.7107 46.4492 65.7227C46.4492 77.7346 56.1868 87.4722 68.1988 87.4722Z" fill="#A0616A"/>
<path d="M50.1968 92.3423L54.7306 80.7558L78.1554 77.2295L80.6722 102.878L56.9955 103.381L50.1968 92.3423Z" fill="#A0616A"/>
<path d="M90.1592 69.7358C89.8769 70.8666 89.3063 73.5592 88.4152 73.5725C87.6872 73.5831 86.9904 61.9017 87.7176 59.9695C88.5529 57.7498 86.3577 54.9419 84.7041 53.5005C81.7308 50.9088 75.1309 56.4738 68.4198 53.9528C68.2419 53.8861 68.2773 53.8936 66.1581 53.0481C59.637 50.4463 59.2942 50.3712 58.9206 50.3341C55.7594 50.0213 51.9014 52.6082 50.3261 55.7622C48.6884 59.0408 50.0567 61.8529 48.5167 69.7848C48.3373 70.7093 48.0554 72.0271 47.612 72.0465C46.8014 72.0818 46.0099 67.7523 45.8027 66.6184C44.9342 61.8675 44.0969 57.2871 45.8027 52.1434C45.9887 51.5824 47.1355 49.5001 49.4214 45.3583C52.7146 39.3917 54.3709 36.3972 54.8495 35.8591C58.2823 31.9988 64.5307 28.4772 69.7768 29.9787C72.4283 30.7376 71.9529 31.9577 75.2049 33.1451C81.0002 35.261 86.0369 32.6733 86.9658 34.5021C87.4579 35.4708 86.0811 36.2695 86.0611 38.1208C86.0269 41.2974 90.0444 42.2153 92.3939 45.3583C93.6569 47.048 95.8188 47.0661 90.1592 69.7358Z" fill="#2F2E41"/>
<path d="M117.104 111.484C116.227 112.469 115.318 113.434 114.376 114.376C101.721 127.03 84.8959 134 66.9998 134C51.5319 134 36.865 128.793 24.9989 119.209C24.9913 119.205 24.9863 119.199 24.9788 119.192C23.4046 117.923 21.8807 116.572 20.4097 115.147C20.4373 114.925 20.4676 114.706 20.5003 114.489C20.7069 113.028 20.9361 111.635 21.193 110.353C23.2962 99.845 50.9702 88.8127 51.6906 88.5254C51.7007 88.523 51.7057 88.5205 51.7057 88.5205C51.7057 88.5205 55.2673 101.649 70.5287 101.48C80.9238 101.366 78.9087 88.5205 78.9087 88.5205C78.9087 88.5205 79.0347 88.5456 79.2714 88.596C82.2738 89.2333 103.119 93.8124 111.343 100.062C113.849 101.966 115.648 106.021 116.94 110.857C116.995 111.064 117.048 111.275 117.104 111.484Z" fill="#6C63FF"/>
<path d="M114.376 19.624C101.722 6.96974 84.8961 0 67 0C49.1039 0 32.2784 6.96974 19.6239 19.624C6.96955 32.2785 0 49.104 0 67C0 83.3345 5.80584 98.7772 16.4452 110.971C17.4603 112.137 18.5207 113.273 19.6239 114.376C19.8834 114.636 20.1453 114.895 20.4098 115.147C21.8808 116.573 23.4047 117.923 24.979 119.192C24.9865 119.2 24.9915 119.205 24.9991 119.21C36.8651 128.794 51.5321 134 67 134C84.8961 134 101.722 127.031 114.376 114.376C115.318 113.434 116.227 112.469 117.104 111.485C128.028 99.2131 134 83.5663 134 67C134 49.104 127.031 32.2785 114.376 19.624ZM116.94 110.857C114.958 113.112 112.827 115.232 110.56 117.2C106.261 120.94 101.475 124.134 96.3138 126.678C94.5027 127.572 92.6464 128.386 90.7472 129.114C83.3697 131.945 75.3624 133.496 67 133.496C58.9298 133.496 51.192 132.051 44.0311 129.406C41.0916 128.323 38.2505 127.036 35.5226 125.562C35.1221 125.346 34.7242 125.126 34.3287 124.902C32.2482 123.723 30.2356 122.436 28.3038 121.046C25.5356 119.061 22.9261 116.867 20.5005 114.489C19.1403 113.157 17.8407 111.769 16.5989 110.326C6.57156 98.679 0.503759 83.536 0.503759 67C0.503759 30.334 30.3339 0.503759 67 0.503759C103.666 0.503759 133.496 30.334 133.496 67C133.496 83.7903 127.242 99.1449 116.94 110.857Z" fill="#3F3D56"/>
</g>
<defs>
<clipPath id="clip0_21_20">
<rect width="134" height="134" rx="67" fill="white"/>
</clipPath>
</defs>
</svg>
